<mxfile host="app.diagrams.net" modified="2023-08-23T22:08:10.325Z" agent="Mozilla/5.0 (Windows NT 10.0; Win64; x64) AppleWebKit/537.36 (KHTML, like Gecko) Chrome/116.0.0.0 Safari/537.36" etag="6u6-fmQKcRjI6YVGPpGB" version="21.6.9" type="google">
  <diagram id="C5RBs43oDa-KdzZeNtuy" name="Page-1">
    <mxGraphModel grid="1" page="1" gridSize="10" guides="1" tooltips="1" connect="1" arrows="1" fold="1" pageScale="1" pageWidth="827" pageHeight="1169" math="0" shadow="0">
      <root>
        <mxCell id="WIyWlLk6GJQsqaUBKTNV-0" />
        <mxCell id="WIyWlLk6GJQsqaUBKTNV-1" parent="WIyWlLk6GJQsqaUBKTNV-0" />
        <mxCell id="WIyWlLk6GJQsqaUBKTNV-2" value="" style="rounded=0;html=1;jettySize=auto;orthogonalLoop=1;fontSize=11;endArrow=block;endFill=0;endSize=8;strokeWidth=1;shadow=0;labelBackgroundColor=none;edgeStyle=orthogonalEdgeStyle;" edge="1" parent="WIyWlLk6GJQsqaUBKTNV-1" source="WIyWlLk6GJQsqaUBKTNV-3">
          <mxGeometry relative="1" as="geometry">
            <mxPoint x="260" y="170" as="targetPoint" />
          </mxGeometry>
        </mxCell>
        <mxCell id="WIyWlLk6GJQsqaUBKTNV-3" value="Sequencing reads from metagenome (FASTQ)" style="rounded=1;whiteSpace=wrap;html=1;fontSize=12;glass=0;strokeWidth=1;shadow=0;fillColor=#d5e8d4;strokeColor=#82b366;" vertex="1" parent="WIyWlLk6GJQsqaUBKTNV-1">
          <mxGeometry x="160" y="80" width="200" height="40" as="geometry" />
        </mxCell>
        <mxCell id="80qLnfa65xfgR7zt9OQR-26" value="" style="edgeStyle=orthogonalEdgeStyle;rounded=0;orthogonalLoop=1;jettySize=auto;html=1;fontFamily=Helvetica;fontSize=12;fontColor=default;" edge="1" parent="WIyWlLk6GJQsqaUBKTNV-1" source="80qLnfa65xfgR7zt9OQR-0" target="80qLnfa65xfgR7zt9OQR-2">
          <mxGeometry relative="1" as="geometry" />
        </mxCell>
        <mxCell id="80qLnfa65xfgR7zt9OQR-0" value="&lt;b&gt;FASTQ quality metrics&lt;/b&gt;&lt;br&gt;Quality check - FASTQC &lt;br&gt;Quality trimming - TRIMMOMATIC" style="rounded=1;whiteSpace=wrap;html=1;fontSize=12;glass=0;strokeWidth=1;shadow=0;fillColor=#fff2cc;strokeColor=#d6b656;" vertex="1" parent="WIyWlLk6GJQsqaUBKTNV-1">
          <mxGeometry x="160" y="170" width="200" height="50" as="geometry" />
        </mxCell>
        <mxCell id="80qLnfa65xfgR7zt9OQR-1" value="" style="rounded=0;html=1;jettySize=auto;orthogonalLoop=1;fontSize=11;endArrow=block;endFill=0;endSize=8;strokeWidth=1;shadow=0;labelBackgroundColor=none;edgeStyle=orthogonalEdgeStyle;" edge="1" parent="WIyWlLk6GJQsqaUBKTNV-1">
          <mxGeometry relative="1" as="geometry">
            <mxPoint x="259.5" y="220" as="sourcePoint" />
            <mxPoint x="259.5" y="270" as="targetPoint" />
          </mxGeometry>
        </mxCell>
        <mxCell id="80qLnfa65xfgR7zt9OQR-2" value="&lt;b&gt;Assign reads to Taxa and calculate microbial abundance&lt;/b&gt;&lt;br&gt;METAPHLAN" style="rounded=1;whiteSpace=wrap;html=1;fontSize=12;glass=0;strokeWidth=1;shadow=0;fillColor=#f8cecc;strokeColor=#b85450;" vertex="1" parent="WIyWlLk6GJQsqaUBKTNV-1">
          <mxGeometry x="430" y="170" width="200" height="50" as="geometry" />
        </mxCell>
        <mxCell id="80qLnfa65xfgR7zt9OQR-3" value="&lt;p style=&quot;box-sizing: border-box; margin: 0px; line-height: var(--line-height); word-break: break-word; color: rgb(0, 30, 0); font-family: &amp;quot;Neue Montreal&amp;quot;, &amp;quot;Helvetica Neue&amp;quot;, Helvetica, Arial, sans-serif, &amp;quot;Apple Color Emoji&amp;quot;, &amp;quot;Segoe UI Emoji&amp;quot;, &amp;quot;Segoe UI Symbol&amp;quot;, &amp;quot;Noto Color Emoji&amp;quot;; font-size: 14px; font-style: normal; font-variant-ligatures: normal; font-variant-caps: normal; font-weight: 400; letter-spacing: 0.6px; orphans: 2; text-align: start; text-indent: 0px; text-transform: none; widows: 2; word-spacing: 0px; -webkit-text-stroke-width: 0px; background-color: rgb(245, 246, 247); text-decoration-thickness: initial; text-decoration-style: initial; text-decoration-color: initial;&quot;&gt;Develop agnostic analytic&lt;/p&gt;&lt;p style=&quot;box-sizing: border-box; margin: 0px; line-height: var(--line-height); word-break: break-word; color: rgb(0, 30, 0); font-family: &amp;quot;Neue Montreal&amp;quot;, &amp;quot;Helvetica Neue&amp;quot;, Helvetica, Arial, sans-serif, &amp;quot;Apple Color Emoji&amp;quot;, &amp;quot;Segoe UI Emoji&amp;quot;, &amp;quot;Segoe UI Symbol&amp;quot;, &amp;quot;Noto Color Emoji&amp;quot;; font-size: 14px; font-style: normal; font-variant-ligatures: normal; font-variant-caps: normal; font-weight: 400; letter-spacing: 0.6px; orphans: 2; text-align: start; text-indent: 0px; text-transform: none; widows: 2; word-spacing: 0px; -webkit-text-stroke-width: 0px; background-color: rgb(245, 246, 247); text-decoration-thickness: initial; text-decoration-style: initial; text-decoration-color: initial;&quot;&gt;&lt;br style=&quot;box-sizing: border-box;&quot;&gt;&lt;/p&gt;&lt;p style=&quot;box-sizing: border-box; margin: 0px; line-height: var(--line-height); word-break: break-word; color: rgb(0, 30, 0); font-family: &amp;quot;Neue Montreal&amp;quot;, &amp;quot;Helvetica Neue&amp;quot;, Helvetica, Arial, sans-serif, &amp;quot;Apple Color Emoji&amp;quot;, &amp;quot;Segoe UI Emoji&amp;quot;, &amp;quot;Segoe UI Symbol&amp;quot;, &amp;quot;Noto Color Emoji&amp;quot;; font-size: 14px; font-style: normal; font-variant-ligatures: normal; font-variant-caps: normal; font-weight: 400; letter-spacing: 0.6px; orphans: 2; text-align: start; text-indent: 0px; text-transform: none; widows: 2; word-spacing: 0px; -webkit-text-stroke-width: 0px; background-color: rgb(245, 246, 247); text-decoration-thickness: initial; text-decoration-style: initial; text-decoration-color: initial;&quot;&gt;workflow for wastewater&lt;/p&gt;&lt;p style=&quot;box-sizing: border-box; margin: 0px; line-height: var(--line-height); word-break: break-word; color: rgb(0, 30, 0); font-family: &amp;quot;Neue Montreal&amp;quot;, &amp;quot;Helvetica Neue&amp;quot;, Helvetica, Arial, sans-serif, &amp;quot;Apple Color Emoji&amp;quot;, &amp;quot;Segoe UI Emoji&amp;quot;, &amp;quot;Segoe UI Symbol&amp;quot;, &amp;quot;Noto Color Emoji&amp;quot;; font-size: 14px; font-style: normal; font-variant-ligatures: normal; font-variant-caps: normal; font-weight: 400; letter-spacing: 0.6px; orphans: 2; text-align: start; text-indent: 0px; text-transform: none; widows: 2; word-spacing: 0px; -webkit-text-stroke-width: 0px; background-color: rgb(245, 246, 247); text-decoration-thickness: initial; text-decoration-style: initial; text-decoration-color: initial;&quot;&gt;&lt;br style=&quot;box-sizing: border-box;&quot;&gt;&lt;/p&gt;&lt;p style=&quot;box-sizing: border-box; margin: 0px; line-height: var(--line-height); word-break: break-word; color: rgb(0, 30, 0); font-family: &amp;quot;Neue Montreal&amp;quot;, &amp;quot;Helvetica Neue&amp;quot;, Helvetica, Arial, sans-serif, &amp;quot;Apple Color Emoji&amp;quot;, &amp;quot;Segoe UI Emoji&amp;quot;, &amp;quot;Segoe UI Symbol&amp;quot;, &amp;quot;Noto Color Emoji&amp;quot;; font-size: 14px; font-style: normal; font-variant-ligatures: normal; font-variant-caps: normal; font-weight: 400; letter-spacing: 0.6px; orphans: 2; text-align: start; text-indent: 0px; text-transform: none; widows: 2; word-spacing: 0px; -webkit-text-stroke-width: 0px; background-color: rgb(245, 246, 247); text-decoration-thickness: initial; text-decoration-style: initial; text-decoration-color: initial;&quot;&gt;surveillance of AR gene/markers&lt;/p&gt;&lt;p style=&quot;box-sizing: border-box; margin: 0px; line-height: var(--line-height); word-break: break-word; color: rgb(0, 30, 0); font-family: &amp;quot;Neue Montreal&amp;quot;, &amp;quot;Helvetica Neue&amp;quot;, Helvetica, Arial, sans-serif, &amp;quot;Apple Color Emoji&amp;quot;, &amp;quot;Segoe UI Emoji&amp;quot;, &amp;quot;Segoe UI Symbol&amp;quot;, &amp;quot;Noto Color Emoji&amp;quot;; font-size: 14px; font-style: normal; font-variant-ligatures: normal; font-variant-caps: normal; font-weight: 400; letter-spacing: 0.6px; orphans: 2; text-align: start; text-indent: 0px; text-transform: none; widows: 2; word-spacing: 0px; -webkit-text-stroke-width: 0px; background-color: rgb(245, 246, 247); text-decoration-thickness: initial; text-decoration-style: initial; text-decoration-color: initial;&quot;&gt;&lt;br style=&quot;box-sizing: border-box;&quot;&gt;&lt;/p&gt;&lt;p style=&quot;box-sizing: border-box; margin: 0px; line-height: var(--line-height); word-break: break-word; color: rgb(0, 30, 0); font-family: &amp;quot;Neue Montreal&amp;quot;, &amp;quot;Helvetica Neue&amp;quot;, Helvetica, Arial, sans-serif, &amp;quot;Apple Color Emoji&amp;quot;, &amp;quot;Segoe UI Emoji&amp;quot;, &amp;quot;Segoe UI Symbol&amp;quot;, &amp;quot;Noto Color Emoji&amp;quot;; font-size: 14px; font-style: normal; font-variant-ligatures: normal; font-variant-caps: normal; font-weight: 400; letter-spacing: 0.6px; orphans: 2; text-align: start; text-indent: 0px; text-transform: none; widows: 2; word-spacing: 0px; -webkit-text-stroke-width: 0px; background-color: rgb(245, 246, 247); text-decoration-thickness: initial; text-decoration-style: initial; text-decoration-color: initial;&quot;&gt;and pathogens. Build/leverage a collection of bioinformatics tools/functions into a pipeline to perform the following functionalities: 6.1. FASTQ quality metrics 6.2. Assign reads or contigs to taxa using marker gene or signature profiling, genome alignment, or k-mer mapping.&lt;/p&gt;&lt;p style=&quot;box-sizing: border-box; margin: 0px; line-height: var(--line-height); word-break: break-word; color: rgb(0, 30, 0); font-family: &amp;quot;Neue Montreal&amp;quot;, &amp;quot;Helvetica Neue&amp;quot;, Helvetica, Arial, sans-serif, &amp;quot;Apple Color Emoji&amp;quot;, &amp;quot;Segoe UI Emoji&amp;quot;, &amp;quot;Segoe UI Symbol&amp;quot;, &amp;quot;Noto Color Emoji&amp;quot;; font-size: 14px; font-style: normal; font-variant-ligatures: normal; font-variant-caps: normal; font-weight: 400; letter-spacing: 0.6px; orphans: 2; text-align: start; text-indent: 0px; text-transform: none; widows: 2; word-spacing: 0px; -webkit-text-stroke-width: 0px; background-color: rgb(245, 246, 247); text-decoration-thickness: initial; text-decoration-style: initial; text-decoration-color: initial;&quot;&gt;&lt;br style=&quot;box-sizing: border-box;&quot;&gt;&lt;/p&gt;&lt;p style=&quot;box-sizing: border-box; margin: 0px; line-height: var(--line-height); word-break: break-word; color: rgb(0, 30, 0); font-family: &amp;quot;Neue Montreal&amp;quot;, &amp;quot;Helvetica Neue&amp;quot;, Helvetica, Arial, sans-serif, &amp;quot;Apple Color Emoji&amp;quot;, &amp;quot;Segoe UI Emoji&amp;quot;, &amp;quot;Segoe UI Symbol&amp;quot;, &amp;quot;Noto Color Emoji&amp;quot;; font-size: 14px; font-style: normal; font-variant-ligatures: normal; font-variant-caps: normal; font-weight: 400; letter-spacing: 0.6px; orphans: 2; text-align: start; text-indent: 0px; text-transform: none; widows: 2; word-spacing: 0px; -webkit-text-stroke-width: 0px; background-color: rgb(245, 246, 247); text-decoration-thickness: initial; text-decoration-style: initial; text-decoration-color: initial;&quot;&gt;6.3. Compare aligned reads/contigs to reference AR database(s) (e.g., those leveraged by the CDC phoenix project). 6.4. Determine microbial abundance/composition. 6.5. Determine AR gene abundance/composition. 6.6. Determine AR gene loci (plasmid, genome). 6.7. Determine AR gene dissemination (bacteria, phage). 6.8. Process for publishing SRA data to NCBI.&lt;span&gt;&amp;nbsp;&lt;/span&gt;&lt;strong style=&quot;box-sizing: border-box; font-weight: var(--strong-weight);&quot;&gt;Pipeline will be integrated into the platform user can launch via command line or UI depending on user preference.&lt;/strong&gt;&lt;span&gt;&amp;nbsp;&lt;/span&gt;All data will be processed and stored on SLD supplied computers and/or servers (physical or cloud). **Pipeline/workflow processing packages/dependencies contained within Conda environments on Linux OS/VM.&lt;/p&gt;" style="text;whiteSpace=wrap;html=1;" vertex="1" parent="WIyWlLk6GJQsqaUBKTNV-1">
          <mxGeometry x="700" y="20" width="350" height="490" as="geometry" />
        </mxCell>
        <mxCell id="80qLnfa65xfgR7zt9OQR-8" value="&lt;div&gt;Workflow for wastewater&lt;/div&gt;&lt;div&gt;surveillance of AR gene/markers&lt;/div&gt;&lt;div&gt;&lt;br&gt;&lt;/div&gt;&lt;div&gt;NEXTFLOW based&lt;/div&gt;" style="text;strokeColor=none;align=center;fillColor=none;html=1;verticalAlign=middle;whiteSpace=wrap;rounded=0;fontSize=12;fontFamily=Helvetica;fontColor=#3333FF;fontStyle=1" vertex="1" parent="WIyWlLk6GJQsqaUBKTNV-1">
          <mxGeometry x="135" y="20" width="505" height="40" as="geometry" />
        </mxCell>
        <mxCell id="80qLnfa65xfgR7zt9OQR-16" value="&lt;b&gt;Assign reads to AR genes and calculate abundance&lt;/b&gt;&lt;br&gt;RESFINDER WITH CARD DB AND CUSTOM PYTHON SCRIPT" style="rounded=1;whiteSpace=wrap;html=1;fontSize=12;glass=0;strokeWidth=1;shadow=0;fillColor=#e1d5e7;strokeColor=#9673a6;" vertex="1" parent="WIyWlLk6GJQsqaUBKTNV-1">
          <mxGeometry x="160" y="360" width="200" height="68" as="geometry" />
        </mxCell>
        <mxCell id="80qLnfa65xfgR7zt9OQR-18" value="&lt;b&gt;Determine AR gene Loci (Plasmid, genome) from contigs&lt;/b&gt;&lt;br&gt;PLASFLOW" style="rounded=1;whiteSpace=wrap;html=1;fontSize=12;glass=0;strokeWidth=1;shadow=0;fillColor=#f5f5f5;fontColor=#333333;strokeColor=#666666;" vertex="1" parent="WIyWlLk6GJQsqaUBKTNV-1">
          <mxGeometry x="160" y="480" width="200" height="68" as="geometry" />
        </mxCell>
        <mxCell id="80qLnfa65xfgR7zt9OQR-28" value="" style="edgeStyle=orthogonalEdgeStyle;rounded=0;orthogonalLoop=1;jettySize=auto;html=1;fontFamily=Helvetica;fontSize=12;fontColor=default;" edge="1" parent="WIyWlLk6GJQsqaUBKTNV-1" source="80qLnfa65xfgR7zt9OQR-21" target="80qLnfa65xfgR7zt9OQR-16">
          <mxGeometry relative="1" as="geometry" />
        </mxCell>
        <mxCell id="80qLnfa65xfgR7zt9OQR-21" value="&lt;b&gt;Contig Assembly&lt;br&gt;&lt;/b&gt;MEGAHIT" style="rounded=1;whiteSpace=wrap;html=1;fontSize=12;glass=0;strokeWidth=1;shadow=0;fillColor=#dae8fc;strokeColor=#6c8ebf;" vertex="1" parent="WIyWlLk6GJQsqaUBKTNV-1">
          <mxGeometry x="160" y="270" width="200" height="50" as="geometry" />
        </mxCell>
        <mxCell id="80qLnfa65xfgR7zt9OQR-22" value="" style="rounded=0;html=1;jettySize=auto;orthogonalLoop=1;fontSize=11;endArrow=block;endFill=0;endSize=8;strokeWidth=1;shadow=0;labelBackgroundColor=none;edgeStyle=orthogonalEdgeStyle;" edge="1" parent="WIyWlLk6GJQsqaUBKTNV-1">
          <mxGeometry relative="1" as="geometry">
            <mxPoint x="259.5" y="430" as="sourcePoint" />
            <mxPoint x="259.5" y="480" as="targetPoint" />
          </mxGeometry>
        </mxCell>
      </root>
    </mxGraphModel>
  </diagram>
</mxfile>
